<svg xmlns="http://www.w3.org/2000/svg" viewBox="0 0 1200 280" width="1200" height="280" role="img" aria-labelledby="t d">
<title id="t">Toolbox</title><desc id="d">Toolbox. Game dev: Luau, Roblox Studio, C++, Unreal Engine. Backend and data: Python, SQL, SQLite, Pandas, Plotly Dash, Java, HTML/CSS. Systems: Git, Linux, Windows Server, Microsoft 365.</desc>
<defs><radialGradient id="pg" cx="50%" cy="100%" r="100%"><stop offset="0" stop-color="#EE8FA8"/><stop offset=".55" stop-color="#F6C1CF"/><stop offset="1" stop-color="#FFF1F5"/></radialGradient>
<linearGradient id="cbg" x1="0" y1="0" x2="1" y2="1"><stop offset="0" stop-color="#FFF7F9"/><stop offset="1" stop-color="#FDEEF2"/></linearGradient><clipPath id="c"><rect width="1200" height="280" rx="26"/></clipPath></defs>
<g clip-path="url(#c)" font-family="'Trebuchet MS','Segoe UI','Helvetica Neue',Verdana,sans-serif"><rect width="1200" height="280" fill="url(#cbg)"/>
<g transform="translate(1172,24) rotate(15) scale(1.9)" opacity="0.5"><path d="M0,0 C-11,-6 -12.4,-19 -4,-20.4 L0,-17.2 L4,-20.4 C12.4,-19 11,-6 0,0 Z" fill="url(#pg)" transform="rotate(0)"/><path d="M0,0 C-11,-6 -12.4,-19 -4,-20.4 L0,-17.2 L4,-20.4 C12.4,-19 11,-6 0,0 Z" fill="url(#pg)" transform="rotate(72)"/><path d="M0,0 C-11,-6 -12.4,-19 -4,-20.4 L0,-17.2 L4,-20.4 C12.4,-19 11,-6 0,0 Z" fill="url(#pg)" transform="rotate(144)"/><path d="M0,0 C-11,-6 -12.4,-19 -4,-20.4 L0,-17.2 L4,-20.4 C12.4,-19 11,-6 0,0 Z" fill="url(#pg)" transform="rotate(216)"/><path d="M0,0 C-11,-6 -12.4,-19 -4,-20.4 L0,-17.2 L4,-20.4 C12.4,-19 11,-6 0,0 Z" fill="url(#pg)" transform="rotate(288)"/><line x1="0" y1="0" x2="0.0" y2="-9.0" stroke="#C9506F" stroke-width="1.1"/><circle cx="0.0" cy="-9.0" r="1.6" fill="#B8405F"/><line x1="0" y1="0" x2="7.8" y2="-4.5" stroke="#C9506F" stroke-width="1.1"/><circle cx="7.8" cy="-4.5" r="1.6" fill="#B8405F"/><line x1="0" y1="0" x2="7.8" y2="4.5" stroke="#C9506F" stroke-width="1.1"/><circle cx="7.8" cy="4.5" r="1.6" fill="#B8405F"/><line x1="0" y1="0" x2="0.0" y2="9.0" stroke="#C9506F" stroke-width="1.1"/><circle cx="0.0" cy="9.0" r="1.6" fill="#B8405F"/><line x1="0" y1="0" x2="-7.8" y2="4.5" stroke="#C9506F" stroke-width="1.1"/><circle cx="-7.8" cy="4.5" r="1.6" fill="#B8405F"/><line x1="0" y1="0" x2="-7.8" y2="-4.5" stroke="#C9506F" stroke-width="1.1"/><circle cx="-7.8" cy="-4.5" r="1.6" fill="#B8405F"/></g>
<g transform="translate(1120,6) rotate(40) scale(0.9)" opacity="0.4"><path d="M0,0 C-11,-6 -12.4,-19 -4,-20.4 L0,-17.2 L4,-20.4 C12.4,-19 11,-6 0,0 Z" fill="url(#pg)" transform="rotate(0)"/><path d="M0,0 C-11,-6 -12.4,-19 -4,-20.4 L0,-17.2 L4,-20.4 C12.4,-19 11,-6 0,0 Z" fill="url(#pg)" transform="rotate(72)"/><path d="M0,0 C-11,-6 -12.4,-19 -4,-20.4 L0,-17.2 L4,-20.4 C12.4,-19 11,-6 0,0 Z" fill="url(#pg)" transform="rotate(144)"/><path d="M0,0 C-11,-6 -12.4,-19 -4,-20.4 L0,-17.2 L4,-20.4 C12.4,-19 11,-6 0,0 Z" fill="url(#pg)" transform="rotate(216)"/><path d="M0,0 C-11,-6 -12.4,-19 -4,-20.4 L0,-17.2 L4,-20.4 C12.4,-19 11,-6 0,0 Z" fill="url(#pg)" transform="rotate(288)"/><line x1="0" y1="0" x2="0.0" y2="-9.0" stroke="#C9506F" stroke-width="1.1"/><circle cx="0.0" cy="-9.0" r="1.6" fill="#B8405F"/><line x1="0" y1="0" x2="7.8" y2="-4.5" stroke="#C9506F" stroke-width="1.1"/><circle cx="7.8" cy="-4.5" r="1.6" fill="#B8405F"/><line x1="0" y1="0" x2="7.8" y2="4.5" stroke="#C9506F" stroke-width="1.1"/><circle cx="7.8" cy="4.5" r="1.6" fill="#B8405F"/><line x1="0" y1="0" x2="0.0" y2="9.0" stroke="#C9506F" stroke-width="1.1"/><circle cx="0.0" cy="9.0" r="1.6" fill="#B8405F"/><line x1="0" y1="0" x2="-7.8" y2="4.5" stroke="#C9506F" stroke-width="1.1"/><circle cx="-7.8" cy="4.5" r="1.6" fill="#B8405F"/><line x1="0" y1="0" x2="-7.8" y2="-4.5" stroke="#C9506F" stroke-width="1.1"/><circle cx="-7.8" cy="-4.5" r="1.6" fill="#B8405F"/></g>
<text x="56" y="66" font-size="13" font-weight="700" fill="#EE8FA8" letter-spacing="3">WHAT I BUILD WITH</text>
<text x="56" y="118" font-size="15" font-weight="700" fill="#C9506F" letter-spacing="1.5">GAME DEV</text>
<rect x="250" y="96" width="65" height="32" rx="16.0" fill="#FBE3EA"/><text x="282" y="117.0" text-anchor="middle" font-size="14.5" font-weight="700" fill="#C9506F">Luau</text>
<rect x="324.8" y="96" width="143" height="32" rx="16.0" fill="#FBE3EA"/><text x="396" y="117.0" text-anchor="middle" font-size="14.5" font-weight="700" fill="#C9506F">Roblox Studio</text>
<rect x="477.9" y="96" width="56" height="32" rx="16.0" fill="#FBE3EA"/><text x="506" y="117.0" text-anchor="middle" font-size="14.5" font-weight="700" fill="#C9506F">C++</text>
<rect x="544.0" y="96" width="143" height="32" rx="16.0" fill="#FBE3EA"/><text x="616" y="117.0" text-anchor="middle" font-size="14.5" font-weight="700" fill="#C9506F">Unreal Engine</text>
<line x1="56" y1="141" x2="1144" y2="141" stroke="#F6C1CF" stroke-width="1" stroke-dasharray="2 6" stroke-linecap="round"/>
<text x="56" y="176" font-size="15" font-weight="700" fill="#9E3D5C" letter-spacing="1.5">BACKEND &amp; DATA</text>
<rect x="250" y="154" width="82" height="32" rx="16.0" fill="#F8DCE5"/><text x="291" y="175.0" text-anchor="middle" font-size="14.5" font-weight="700" fill="#9E3D5C">Python</text>
<rect x="342.2" y="154" width="56" height="32" rx="16.0" fill="#F8DCE5"/><text x="370" y="175.0" text-anchor="middle" font-size="14.5" font-weight="700" fill="#9E3D5C">SQL</text>
<rect x="408.29999999999995" y="154" width="82" height="32" rx="16.0" fill="#F8DCE5"/><text x="449" y="175.0" text-anchor="middle" font-size="14.5" font-weight="700" fill="#9E3D5C">SQLite</text>
<rect x="500.49999999999994" y="154" width="82" height="32" rx="16.0" fill="#F8DCE5"/><text x="542" y="175.0" text-anchor="middle" font-size="14.5" font-weight="700" fill="#9E3D5C">Pandas</text>
<rect x="592.6999999999999" y="154" width="126" height="32" rx="16.0" fill="#F8DCE5"/><text x="656" y="175.0" text-anchor="middle" font-size="14.5" font-weight="700" fill="#9E3D5C">Plotly Dash</text>
<rect x="728.3999999999999" y="154" width="65" height="32" rx="16.0" fill="#F8DCE5"/><text x="761" y="175.0" text-anchor="middle" font-size="14.5" font-weight="700" fill="#9E3D5C">Java</text>
<rect x="803.1999999999998" y="154" width="117" height="32" rx="16.0" fill="#F8DCE5"/><text x="862" y="175.0" text-anchor="middle" font-size="14.5" font-weight="700" fill="#9E3D5C">HTML / CSS</text>
<line x1="56" y1="199" x2="1144" y2="199" stroke="#F6C1CF" stroke-width="1" stroke-dasharray="2 6" stroke-linecap="round"/>
<text x="56" y="234" font-size="15" font-weight="700" fill="#6E3A52" letter-spacing="1.5">SYSTEMS</text>
<rect x="250" y="212" width="56" height="32" rx="16.0" fill="#F3DEE6"/><text x="278" y="233.0" text-anchor="middle" font-size="14.5" font-weight="700" fill="#6E3A52">Git</text>
<rect x="316.1" y="212" width="74" height="32" rx="16.0" fill="#F3DEE6"/><text x="353" y="233.0" text-anchor="middle" font-size="14.5" font-weight="700" fill="#6E3A52">Linux</text>
<rect x="399.6" y="212" width="152" height="32" rx="16.0" fill="#F3DEE6"/><text x="476" y="233.0" text-anchor="middle" font-size="14.5" font-weight="700" fill="#6E3A52">Windows Server</text>
<rect x="561.4000000000001" y="212" width="143" height="32" rx="16.0" fill="#F3DEE6"/><text x="633" y="233.0" text-anchor="middle" font-size="14.5" font-weight="700" fill="#6E3A52">Microsoft 365</text></g></svg>
